<?xml version="1.0" encoding="UTF-8"?> <!-- Generator: Adobe Illustrator 24.3.0, SVG Export Plug-In . SVG Version: 6.00 Build 0) --> <svg xmlns="http://www.w3.org/2000/svg" xmlns:xlink="http://www.w3.org/1999/xlink" version="1.0" id="katman_1" x="0px" y="0px" viewBox="0 0 500 300" style="enable-background:new 0 0 500 300;" xml:space="preserve"> <style type="text/css"> .st0{fill:#FF642D;} </style> <path class="st0" d="M431.18,148.03c0,9.31-4.67,10.75-16.49,10.75c-12.54,0-14.7-2.15-16.13-11.47 c-2.51-24.01-18.65-44.45-45.87-46.59c-8.6-0.72-10.75-3.95-10.75-14.7c0-10.03,1.43-14.7,9.31-14.7 C398.55,71.33,431.18,109.32,431.18,148.03z M500,148.03C500,76,451.26,0,338.7,0H114.97c-4.51,0-7.31,2.36-7.31,6.48 c0,2.25,1.68,4.27,3.21,5.46c8.2,6.44,20.14,13.53,36.16,21.54c15.53,7.76,27.53,12.81,39.71,17.76c5.03,2.04,7.03,4.27,7.03,7.25 c0,3.89-2.74,6.37-8.41,6.37H7.78c-5.25,0-7.78,3.38-7.78,6.8c0,2.91,1.02,5.23,3.49,7.8c14.41,15.04,37.33,33.17,70.82,54.12 c29.36,18.36,65.63,38.18,94.4,51.97c4.84,2.32,6.52,5.01,6.4,7.78c-0.13,3.21-2.66,5.93-8.26,5.93h-81.4c-4.63,0-7.2,2.44-7.2,6.18 c0,2.08,1.68,4.72,3.87,6.73c18.51,16.79,48.12,35.16,87.56,51.95C222.32,286.53,275.87,300,336.02,300 C450.01,300,500,214.7,500,148.03z M351.25,250.18c-55.92,0-102.5-45.53-102.5-102.15c0-55.92,46.59-100.71,102.5-100.71 c57.35,0,102.15,44.81,102.15,100.71C453.39,204.65,408.6,250.18,351.25,250.18z"></path> </svg> 